<?xml version="1.0" encoding="utf-8"?>
<!-- Generator: Adobe Illustrator 17.1.0, SVG Export Plug-In . SVG Version: 6.00 Build 0)  -->
<!DOCTYPE svg PUBLIC "-//W3C//DTD SVG 1.1//EN" "http://www.w3.org/Graphics/SVG/1.1/DTD/svg11.dtd">
<svg id="svg" version="1.1" width="500" height="500" xmlns="http://www.w3.org/2000/svg" xmlns:xlink="http://www.w3.org/1999/xlink" style="display: block;">
  <g id="svgg">
	  <path id="path0" d="M56.964 75.402 C 56.505 75.956,55.892 77.351,55.603 78.502 C 55.089 80.550,53.414 81.791,49.800 82.804 L 48.000 83.308 48.000 115.654 L 48.000 148.000 93.600 148.000 L 139.200 148.000 139.200 138.000 L 139.200 128.000 107.457 128.000 C 72.433 128.000,71.401 127.877,69.286 123.443 C 67.511 119.721,67.456 102.573,69.208 99.184 C 71.353 95.036,65.955 95.200,200.638 95.200 L 327.782 95.200 329.891 97.309 C 332.445 99.863,333.154 119.448,330.853 123.897 C 328.710 128.041,329.583 128.000,243.304 128.000 L 163.193 128.000 163.397 222.113 C 163.575 304.835,163.745 316.298,164.800 316.820 C 165.460 317.147,166.945 317.853,168.099 318.389 C 169.293 318.943,170.846 320.794,171.699 322.681 L 173.200 326.000 200.110 326.211 L 227.020 326.421 228.910 322.611 C 230.255 319.899,231.492 318.569,233.200 318.000 C 234.520 317.560,236.050 316.909,236.600 316.553 C 238.165 315.540,238.053 174.172,236.485 172.871 C 235.748 172.259,232.299 172.023,226.285 172.173 L 217.200 172.400 216.800 236.142 C 216.350 307.867,216.771 303.371,210.340 305.040 C 204.582 306.535,188.253 305.409,186.222 303.378 L 184.400 301.556 184.161 229.778 C 184.030 190.300,184.143 156.463,184.413 154.585 C 185.367 147.932,178.556 148.452,270.764 148.000 L 352.400 147.600 352.609 116.240 C 352.837 82.154,353.115 84.270,348.079 81.757 C 346.204 80.822,345.085 79.530,344.479 77.600 L 343.600 74.800 200.700 74.598 C 86.654 74.436,57.631 74.599,56.964 75.402 " stroke="none" fill="#ffffff" fill-rule="evenodd"></path><path id="path1" d="M0.000 200.000 L 0.000 400.000 200.000 400.000 L 400.000 400.000 400.000 200.000 L 400.000 0.000 200.000 0.000 L 0.000 0.000 0.000 200.000 M346.108 71.641 C 347.149 72.764,348.000 74.091,348.000 74.590 C 348.000 75.840,351.257 79.200,352.468 79.200 C 353.013 79.200,354.341 80.249,355.420 81.532 L 357.382 83.863 356.985 115.732 C 356.613 145.598,356.491 147.738,355.040 149.800 L 353.491 152.000 272.496 152.000 C 192.092 152.000,191.489 152.012,189.751 153.631 L 188.000 155.262 188.000 227.039 L 188.000 298.815 189.800 299.943 C 192.424 301.586,208.647 301.173,210.600 299.413 C 211.911 298.232,212.000 294.143,212.001 235.276 L 212.002 172.400 213.894 170.200 C 216.378 167.312,235.877 166.748,239.235 169.468 L 241.047 170.935 240.867 244.067 C 240.670 324.056,240.973 319.047,236.230 320.861 C 235.256 321.233,233.595 322.907,232.538 324.581 C 229.403 329.547,230.602 329.352,200.258 329.838 C 169.057 330.337,170.835 330.600,167.578 325.013 C 166.749 323.590,164.880 321.861,163.426 321.171 C 157.833 318.517,158.216 326.251,158.511 221.822 L 158.777 127.600 161.066 125.200 L 163.355 122.800 244.389 122.589 C 309.822 122.418,325.589 122.177,326.288 121.335 C 328.019 119.250,328.431 102.602,326.797 100.796 C 325.365 99.214,324.236 99.200,200.276 99.200 C 54.011 99.200,72.000 97.502,72.000 111.306 C 72.000 124.222,68.719 123.137,106.140 122.598 C 140.432 122.104,141.126 122.192,143.260 127.344 C 144.756 130.956,143.634 146.974,141.701 149.600 L 140.229 151.600 94.315 152.035 C 42.699 152.525,46.177 152.723,43.982 149.171 C 42.396 146.605,42.353 145.565,42.573 115.042 L 42.800 83.560 44.800 81.524 C 45.900 80.404,47.809 78.862,49.043 78.097 C 50.277 77.332,51.516 76.106,51.798 75.372 C 52.080 74.639,53.200 73.040,54.287 71.819 L 56.264 69.600 200.241 69.600 L 344.217 69.600 346.108 71.641 " stroke="none" fill="#b39176" fill-rule="evenodd"></path><path id="path2" d="M54.287 71.819 C 53.200 73.040,52.080 74.639,51.798 75.372 C 51.516 76.106,50.277 77.332,49.043 78.097 C 47.809 78.862,45.900 80.404,44.800 81.524 L 42.800 83.560 42.573 115.042 C 42.353 145.565,42.396 146.605,43.982 149.171 C 46.177 152.723,42.699 152.525,94.315 152.035 L 140.229 151.600 141.701 149.600 C 143.634 146.974,144.756 130.956,143.260 127.344 C 141.126 122.192,140.432 122.104,106.140 122.598 C 68.719 123.137,72.000 124.222,72.000 111.306 C 72.000 97.502,54.011 99.200,200.276 99.200 C 324.236 99.200,325.365 99.214,326.797 100.796 C 328.431 102.602,328.019 119.250,326.288 121.335 C 325.589 122.177,309.822 122.418,244.389 122.589 L 163.355 122.800 161.066 125.200 L 158.777 127.600 158.511 221.822 C 158.216 326.251,157.833 318.517,163.426 321.171 C 164.880 321.861,166.749 323.590,167.578 325.013 C 170.835 330.600,169.057 330.337,200.258 329.838 C 230.602 329.352,229.403 329.547,232.538 324.581 C 233.595 322.907,235.256 321.233,236.230 320.861 C 240.973 319.047,240.670 324.056,240.867 244.067 L 241.047 170.935 239.235 169.468 C 235.877 166.748,216.378 167.312,213.894 170.200 L 212.002 172.400 212.001 235.276 C 212.000 294.143,211.911 298.232,210.600 299.413 C 208.647 301.173,192.424 301.586,189.800 299.943 L 188.000 298.815 188.000 227.039 L 188.000 155.262 189.751 153.631 C 191.489 152.012,192.092 152.000,272.496 152.000 L 353.491 152.000 355.040 149.800 C 356.491 147.738,356.613 145.598,356.985 115.732 L 357.382 83.863 355.420 81.532 C 354.341 80.249,353.013 79.200,352.468 79.200 C 351.257 79.200,348.000 75.840,348.000 74.590 C 348.000 74.091,347.149 72.764,346.108 71.641 L 344.217 69.600 200.241 69.600 L 56.264 69.600 54.287 71.819 M344.479 77.600 C 345.085 79.530,346.204 80.822,348.079 81.757 C 353.115 84.270,352.837 82.154,352.609 116.240 L 352.400 147.600 270.764 148.000 C 178.556 148.452,185.367 147.932,184.413 154.585 C 184.143 156.463,184.030 190.300,184.161 229.778 L 184.400 301.556 186.222 303.378 C 188.253 305.409,204.582 306.535,210.340 305.040 C 216.771 303.371,216.350 307.867,216.800 236.142 L 217.200 172.400 226.285 172.173 C 232.299 172.023,235.748 172.259,236.485 172.871 C 238.053 174.172,238.165 315.540,236.600 316.553 C 236.050 316.909,234.520 317.560,233.200 318.000 C 231.492 318.569,230.255 319.899,228.910 322.611 L 227.020 326.421 200.110 326.211 L 173.200 326.000 171.699 322.681 C 170.846 320.794,169.293 318.943,168.099 318.389 C 166.945 317.853,165.460 317.147,164.800 316.820 C 163.745 316.298,163.575 304.835,163.397 222.113 L 163.193 128.000 243.304 128.000 C 329.583 128.000,328.710 128.041,330.853 123.897 C 333.154 119.448,332.445 99.863,329.891 97.309 L 327.782 95.200 200.638 95.200 C 65.955 95.200,71.353 95.036,69.208 99.184 C 67.456 102.573,67.511 119.721,69.286 123.443 C 71.401 127.877,72.433 128.000,107.457 128.000 L 139.200 128.000 139.200 138.000 L 139.200 148.000 93.600 148.000 L 48.000 148.000 48.000 115.654 L 48.000 83.308 49.800 82.804 C 53.414 81.791,55.089 80.550,55.603 78.502 C 55.892 77.351,56.505 75.956,56.964 75.402 C 57.631 74.599,86.654 74.436,200.700 74.598 L 343.600 74.800 344.479 77.600 " stroke="none" fill="#e7ded7" fill-rule="evenodd"></path>
  </g>
</svg>